<svg width="16" height="16" viewBox="0 0 16 16" fill="none" xmlns="http://www.w3.org/2000/svg">
<path d="M15.7443 4.06464L15.2202 3.5369C15.0552 3.37208 14.8358 3.28128 14.6012 3.28128C14.3668 3.28128 14.1471 3.37208 13.9822 3.5369L8.00358 9.51574L2.0181 3.53026C1.85341 3.36545 1.6337 3.27478 1.3993 3.27478C1.16489 3.27478 0.945048 3.36545 0.780234 3.53026L0.256002 4.05475C-0.085334 4.39583 -0.085334 4.95141 0.256002 5.29249L7.38243 12.4445C7.54712 12.6092 7.76657 12.7253 8.00306 12.7253H8.00579C8.24033 12.7253 8.45978 12.6091 8.62446 12.4445L15.7443 5.31187C15.9092 5.14719 15.9997 4.9211 16 4.68669C16 4.45216 15.9092 4.22919 15.7443 4.06464Z" fill="#62C3C6"/>
</svg>
