<svg width="115" height="30" viewBox="0 0 115 30" fill="none" xmlns="http://www.w3.org/2000/svg">
<path d="M4.29353 29.18V25.076H10.8815C12.0815 25.076 12.9935 24.752 13.6175 24.104C14.2415 23.432 14.5535 22.52 14.5535 21.368C14.5535 20.216 14.2415 19.328 13.6175 18.704C12.9935 18.056 12.0815 17.732 10.8815 17.732H4.29353V14.6H10.5215C12.2735 14.6 13.8335 14.816 15.2015 15.248C16.5935 15.656 17.6735 16.352 18.4415 17.336C19.2335 18.32 19.6295 19.64 19.6295 21.296V21.8C19.6295 23.36 19.2815 24.692 18.5855 25.796C17.9135 26.876 16.8935 27.716 15.5255 28.316C14.1815 28.892 12.5135 29.18 10.5215 29.18H4.29353ZM0.00953138 29.18V2.54H5.01353V29.18H0.00953138ZM4.29353 16.904V13.772H9.90953C11.1335 13.772 12.0335 13.448 12.6095 12.8C13.1855 12.152 13.4735 11.288 13.4735 10.208C13.4735 9.128 13.1855 8.264 12.6095 7.616C12.0335 6.968 11.1335 6.644 9.90953 6.644H4.29353V2.54H9.44153C12.4175 2.54 14.6735 3.164 16.2095 4.412C17.7695 5.66 18.5495 7.448 18.5495 9.776V10.28C18.5495 11.912 18.1535 13.22 17.3615 14.204C16.5935 15.164 15.5255 15.86 14.1575 16.292C12.7895 16.7 11.2175 16.904 9.44153 16.904H4.29353ZM24.6507 29V2.72H29.6547V29H24.6507ZM22.2027 6.464V2.72H29.6547V6.464H22.2027ZM42.0274 29.612C39.7714 29.612 38.0194 28.868 36.7714 27.38C35.5474 25.892 34.9354 23.684 34.9354 20.756V9.416H39.9394V21.188C39.9394 22.388 40.2754 23.348 40.9474 24.068C41.6194 24.764 42.5314 25.112 43.6834 25.112C44.8354 25.112 45.7714 24.74 46.4914 23.996C47.2354 23.252 47.6074 22.244 47.6074 20.972V9.416H52.6114V29H48.6514V20.684H49.0474C49.0474 22.652 48.7954 24.296 48.2914 25.616C47.7874 26.936 47.0314 27.932 46.0234 28.604C45.0154 29.276 43.7554 29.612 42.2434 29.612H42.0274ZM40.0114 6.14C39.0514 6.14 38.3434 5.876 37.8874 5.348C37.4554 4.82 37.2394 4.172 37.2394 3.404C37.2394 2.636 37.4554 2 37.8874 1.496C38.3434 0.967999 39.0514 0.704 40.0114 0.704C40.9954 0.704 41.7034 0.967999 42.1354 1.496C42.5674 2 42.7834 2.636 42.7834 3.404C42.7834 4.172 42.5674 4.82 42.1354 5.348C41.7034 5.876 40.9954 6.14 40.0114 6.14ZM47.5714 6.14C46.6114 6.14 45.9034 5.876 45.4474 5.348C45.0154 4.82 44.7994 4.172 44.7994 3.404C44.7994 2.636 45.0154 2 45.4474 1.496C45.9034 0.967999 46.6114 0.704 47.5714 0.704C48.5554 0.704 49.2634 0.967999 49.6954 1.496C50.1274 2 50.3434 2.636 50.3434 3.404C50.3434 4.172 50.1274 4.82 49.6954 5.348C49.2634 5.876 48.5554 6.14 47.5714 6.14ZM66.8556 29.252C65.0556 29.252 63.5676 29.024 62.3916 28.568C61.2396 28.088 60.3756 27.296 59.7996 26.192C59.2236 25.064 58.9356 23.552 58.9356 21.656L58.9716 3.944H63.6516L63.6156 21.98C63.6156 22.94 63.8676 23.684 64.3716 24.212C64.8996 24.716 65.6436 24.968 66.6036 24.968H69.6636V29.252H66.8556ZM55.8396 13.124V9.452H69.6636V13.124H55.8396ZM82.5061 29.684C80.8261 29.684 79.3501 29.396 78.0781 28.82C76.8301 28.244 75.7861 27.476 74.9461 26.516C74.1301 25.532 73.5061 24.44 73.0741 23.24C72.6661 22.04 72.4621 20.816 72.4621 19.568V18.884C72.4621 17.588 72.6661 16.34 73.0741 15.14C73.5061 13.916 74.1301 12.836 74.9461 11.9C75.7861 10.94 76.8181 10.184 78.0421 9.632C79.2661 9.056 80.6821 8.768 82.2901 8.768C84.4021 8.768 86.1661 9.236 87.5821 10.172C89.0221 11.084 90.1021 12.296 90.8221 13.808C91.5421 15.296 91.9021 16.904 91.9021 18.632V20.432H74.5861V17.372H88.7701L87.2221 18.884C87.2221 17.636 87.0421 16.568 86.6821 15.68C86.3221 14.792 85.7701 14.108 85.0261 13.628C84.3061 13.148 83.3941 12.908 82.2901 12.908C81.1861 12.908 80.2501 13.16 79.4821 13.664C78.7141 14.168 78.1261 14.9 77.7181 15.86C77.3341 16.796 77.1421 17.924 77.1421 19.244C77.1421 20.468 77.3341 21.56 77.7181 22.52C78.1021 23.456 78.6901 24.2 79.4821 24.752C80.2741 25.28 81.2821 25.544 82.5061 25.544C83.7301 25.544 84.7261 25.304 85.4941 24.824C86.2621 24.32 86.7541 23.708 86.9701 22.988H91.5781C91.2901 24.332 90.7381 25.508 89.9221 26.516C89.1061 27.524 88.0621 28.304 86.7901 28.856C85.5421 29.408 84.1141 29.684 82.5061 29.684ZM96.0823 29V9.452H100.042V17.84H99.6823C99.6823 15.848 99.9463 14.192 100.474 12.872C101.002 11.528 101.782 10.52 102.814 9.848C103.87 9.176 105.178 8.84 106.738 8.84H106.954C109.282 8.84 111.046 9.596 112.246 11.108C113.446 12.596 114.046 14.828 114.046 17.804V29H109.042V17.372C109.042 16.172 108.694 15.2 107.998 14.456C107.326 13.712 106.39 13.34 105.19 13.34C103.966 13.34 102.97 13.724 102.202 14.492C101.458 15.236 101.086 16.244 101.086 17.516V29H96.0823Z" fill="#116A6C"/>
</svg>
