<svg width="23" height="21" viewBox="0 0 23 21" fill="none" xmlns="http://www.w3.org/2000/svg">
<path d="M9.42909 21C8.18748 21 7.1773 19.9882 7.1773 18.7447C7.1773 17.5011 8.18748 16.4897 9.42909 16.4897C10.6707 16.4897 11.6809 17.5011 11.6809 18.7447C11.6809 19.9882 10.6707 21 9.42909 21ZM9.42909 17.9053C9.20684 17.9055 8.99373 17.9939 8.83654 18.1513C8.67935 18.3087 8.59091 18.5221 8.59063 18.7447C8.59063 19.2079 8.96658 19.5845 9.42909 19.5845C9.8916 19.5845 10.2675 19.2079 10.2675 18.7447C10.2673 18.5221 10.1788 18.3087 10.0216 18.1513C9.86445 17.9939 9.65135 17.9055 9.42909 17.9053ZM17.2568 21C16.0152 21 15.0054 19.9882 15.0054 18.7447C15.0054 17.5011 16.0152 16.4897 17.2568 16.4897C18.4984 16.4897 19.5086 17.5011 19.5086 18.7447C19.5086 19.9882 18.4981 21 17.2568 21ZM17.2568 17.9053C17.0346 17.9056 16.8216 17.9941 16.6645 18.1514C16.5074 18.3088 16.419 18.5222 16.4187 18.7447C16.4189 18.9673 16.5073 19.1807 16.6644 19.3382C16.8215 19.4956 17.0346 19.5842 17.2568 19.5845C17.4791 19.5843 17.6923 19.4957 17.8495 19.3383C18.0067 19.1808 18.0951 18.9674 18.0953 18.7447C18.095 18.5221 18.0066 18.3087 17.8494 18.1513C17.6922 17.9939 17.4791 17.9055 17.2568 17.9053ZM18.9055 14.7415H7.80411C7.28238 14.7436 6.77558 14.5672 6.36757 14.2415C5.95957 13.9158 5.67482 13.4604 5.56045 12.9505L3.25636 2.87295C3.24109 2.80687 3.21102 2.74513 3.16841 2.6924C3.12581 2.63967 3.07179 2.59734 3.01044 2.56861L1.09926 1.68142C0.89048 1.58045 0.7297 1.40132 0.651614 1.18268C0.573528 0.964042 0.584398 0.723418 0.681879 0.512733C0.779359 0.302047 0.955634 0.138192 1.17267 0.0565234C1.3897 -0.0251451 1.63009 -0.0180792 1.84197 0.0761965L3.75315 0.963386C4.0587 1.10626 4.3278 1.31687 4.54009 1.57928C4.75238 1.84169 4.9023 2.14901 4.97851 2.47801L7.28259 12.5563C7.30916 12.6748 7.37535 12.7807 7.47019 12.8564C7.56504 12.932 7.68285 12.973 7.80411 12.9725H18.9055C19.0264 12.9728 19.1439 12.932 19.2387 12.8567C19.3334 12.7814 19.3998 12.6761 19.427 12.5581L21.2184 4.83878C21.2374 4.7603 21.238 4.6785 21.2204 4.59971C21.2028 4.52092 21.1673 4.44725 21.1166 4.38439C21.0669 4.32075 21.0033 4.2694 20.9307 4.2343C20.858 4.19921 20.7783 4.1813 20.6976 4.18197H7.62426C7.38999 4.18197 7.16531 4.08876 6.99965 3.92284C6.834 3.75693 6.74093 3.5319 6.74093 3.29726C6.74093 3.06262 6.834 2.83759 6.99965 2.67167C7.16531 2.50576 7.38999 2.41254 7.62426 2.41254H20.6976C21.4039 2.41254 22.0604 2.72998 22.4999 3.28381C22.9395 3.83764 23.0992 4.55036 22.9395 5.23938L21.1477 12.959C21.0313 13.4668 20.746 13.9199 20.3385 14.2438C19.931 14.5678 19.4257 14.7433 18.9055 14.7415Z" fill="#28E3E9"/>
</svg>
