<svg width="17" height="19" viewBox="0 0 17 19" fill="none" xmlns="http://www.w3.org/2000/svg">
<path d="M9.552 18.432C7.088 18.432 5.2 17.68 3.888 16.176C2.592 14.656 1.944 12.4 1.944 9.408V9.072C1.944 6.064 2.576 3.808 3.84 2.304C5.12 0.799999 6.984 0.0479994 9.432 0.0479994C10.968 0.0479994 12.24 0.311999 13.248 0.839999C14.272 1.352 15.04 2.072 15.552 3C16.08 3.912 16.368 4.968 16.416 6.168H12.576C12.512 5.368 12.224 4.736 11.712 4.272C11.216 3.792 10.456 3.552 9.432 3.552C8.136 3.552 7.208 3.984 6.648 4.848C6.104 5.712 5.832 7.176 5.832 9.24C5.832 11.304 6.12 12.768 6.696 13.632C7.288 14.496 8.24 14.928 9.552 14.928C10.592 14.928 11.36 14.696 11.856 14.232C12.368 13.752 12.656 13.112 12.72 12.312H16.56C16.512 13.496 16.224 14.552 15.696 15.48C15.184 16.408 14.416 17.136 13.392 17.664C12.384 18.176 11.104 18.432 9.552 18.432ZM0.24 12.264V10.2H10.584V12.264H0.24ZM0.672 8.616V6.552H11.016V8.616H0.672Z" fill="#62C3C6"/>
</svg>
