<svg width="24" height="24" viewBox="0 0 24 24" fill="none" xmlns="http://www.w3.org/2000/svg">
<path d="M2.51952 4.71092H4.72498L3.55311 3.53905V5.74452L4.72498 4.57264H2.51952L3.69139 5.74452V3.53905C3.69139 3.23905 3.56014 2.92264 3.3492 2.70936C3.1453 2.50545 2.81248 2.35311 2.51952 2.36717C2.21717 2.38123 1.90311 2.47967 1.68983 2.70936C1.47889 2.93905 1.34764 3.2203 1.34764 3.53905V5.74452C1.34764 6.37733 1.88436 6.91639 2.51952 6.91639H4.72498C5.3578 6.91639 5.89686 6.37967 5.89686 5.74452V3.53905C5.89686 2.90623 5.36014 2.36717 4.72498 2.36717H2.51952C2.21952 2.36717 1.90311 2.49842 1.68983 2.70936C1.48592 2.91327 1.33358 3.24608 1.34764 3.53905C1.3617 3.84139 1.46014 4.15545 1.68983 4.36873C1.91952 4.57967 2.20311 4.71092 2.51952 4.71092ZM8.98592 5.81483H20.0765C20.5851 5.81483 21.0961 5.82186 21.6047 5.81483H21.6258C21.9258 5.81483 22.2422 5.68358 22.4555 5.47264C22.6594 5.26873 22.8117 4.93592 22.7976 4.64295C22.7836 4.34061 22.6851 4.02655 22.4555 3.81327C22.2258 3.60233 21.9445 3.47108 21.6258 3.47108H10.5351C10.0265 3.47108 9.51561 3.46405 9.00702 3.47108H8.98592C8.68592 3.47108 8.36952 3.60233 8.15623 3.81327C7.95233 4.01717 7.79998 4.34998 7.81405 4.64295C7.82811 4.9453 7.92655 5.25936 8.15623 5.47264C8.38592 5.68123 8.66717 5.81483 8.98592 5.81483ZM2.51952 12.068H4.72498L3.55311 10.8961V13.1015L4.72498 11.9297H2.51952L3.69139 13.1015V10.8961C3.69139 10.5961 3.56014 10.2797 3.3492 10.0664C3.1453 9.86248 2.81248 9.71014 2.51952 9.7242C2.21717 9.73827 1.90311 9.8367 1.68983 10.0664C1.47889 10.2961 1.34764 10.5773 1.34764 10.8961V13.1015C1.34764 13.7344 1.88436 14.2734 2.51952 14.2734H4.72498C5.3578 14.2734 5.89686 13.7367 5.89686 13.1015V10.8961C5.89686 10.2633 5.36014 9.7242 4.72498 9.7242H2.51952C2.21952 9.7242 1.90311 9.85545 1.68983 10.0664C1.48592 10.2703 1.33358 10.6031 1.34764 10.8961C1.3617 11.1984 1.46014 11.5125 1.68983 11.7258C1.91952 11.9367 2.20311 12.068 2.51952 12.068ZM8.98592 13.1719H20.0765C20.5851 13.1719 21.0961 13.1789 21.6047 13.1719H21.6258C21.9258 13.1719 22.2422 13.0406 22.4555 12.8297C22.6594 12.6258 22.8117 12.293 22.7976 12C22.7836 11.6976 22.6851 11.3836 22.4555 11.1703C22.2258 10.9594 21.9445 10.8281 21.6258 10.8281H10.5351C10.0265 10.8281 9.51561 10.8211 9.00702 10.8281H8.98592C8.68592 10.8281 8.36952 10.9594 8.15623 11.1703C7.95233 11.3742 7.79998 11.707 7.81405 12C7.82811 12.3023 7.92655 12.6164 8.15623 12.8297C8.38592 13.0383 8.66717 13.1719 8.98592 13.1719ZM2.51952 19.4273H4.72498L3.55311 18.2555V20.4609L4.72498 19.289H2.51952L3.69139 20.4609V18.2555C3.69139 17.9555 3.56014 17.639 3.3492 17.4258C3.1453 17.2219 2.81248 17.0695 2.51952 17.0836C2.21717 17.0976 1.90311 17.1961 1.68983 17.4258C1.47889 17.6555 1.34764 17.9367 1.34764 18.2555V20.4609C1.34764 21.0937 1.88436 21.6328 2.51952 21.6328H4.72498C5.3578 21.6328 5.89686 21.0961 5.89686 20.4609V18.2555C5.89686 17.6226 5.36014 17.0836 4.72498 17.0836H2.51952C2.21952 17.0836 1.90311 17.2148 1.68983 17.4258C1.48592 17.6297 1.33358 17.9625 1.34764 18.2555C1.3617 18.5578 1.46014 18.8719 1.68983 19.0851C1.91952 19.2937 2.20311 19.4273 2.51952 19.4273ZM8.98592 20.5289H20.0765C20.5851 20.5289 21.0961 20.5359 21.6047 20.5289H21.6258C21.9258 20.5289 22.2422 20.3976 22.4555 20.1867C22.6594 19.9828 22.8117 19.65 22.7976 19.357C22.7836 19.0547 22.6851 18.7406 22.4555 18.5273C22.2258 18.3164 21.9445 18.1851 21.6258 18.1851H10.5351C10.0265 18.1851 9.51561 18.1781 9.00702 18.1851H8.98592C8.68592 18.1851 8.36952 18.3164 8.15623 18.5273C7.95233 18.7312 7.79998 19.064 7.81405 19.357C7.82811 19.6594 7.92655 19.9734 8.15623 20.1867C8.38592 20.3953 8.66717 20.5289 8.98592 20.5289Z" fill="#045A5C"/>
</svg>
